<svg fill="none" height="32" viewBox="0 0 32 32" width="32" xmlns="http://www.w3.org/2000/svg"><path d="m30.5999 18.8c-.1051.0788-.2246.1361-.3518.1687s-.2596.0398-.3896.0213c-.13-.0186-.2551-.0626-.3681-.1295s-.2117-.1554-.2905-.2605c-.6027-.8102-1.3873-1.4675-2.2905-1.9191-.9031-.4516-1.8997-.6848-2.9095-.6809-.1967 0-.3889-.058-.5528-.1667-.1638-.1087-.292-.2634-.3685-.4445-.0519-.1231-.0786-.2552-.0786-.3888 0-.1335.0267-.2657.0786-.3887.0765-.1812.2047-.3358.3685-.4445.1639-.1088.3561-.1668.5528-.1668.5611 0 1.1109-.1574 1.587-.4543s.8595-.7213 1.1065-1.2251c.2469-.5038.3477-1.0668.2907-1.625-.0569-.5582-.2692-1.08924-.6128-1.5328-.3437-.44357-.8048-.78188-1.331-.97651-.5263-.19463-1.0966-.23778-1.6461-.12454-.5496.11324-1.0563.37832-1.4628.76513-.4064.38682-.6962.87987-.8365 1.42312-.0328.1272-.0904.2467-.1694.3517s-.178.1934-.2911.2601c-.1132.0667-.2384.1105-.3685.1289s-.2625.0109-.3898-.0219c-.1272-.0329-.2467-.0904-.3517-.1694-.1049-.0791-.1933-.178-.26-.2911-.0668-.1132-.1106-.2384-.1289-.3685-.0184-.1301-.0109-.26256.0219-.38978.1947-.75336.5625-1.45088 1.0742-2.03706s1.1532-1.04485 1.8733-1.3395c.7202-.29466 1.4992-.41716 2.275-.35778.7759.05939 1.5272.29903 2.1941.69985.6669.40083 1.2311.95178 1.6476 1.60901.4165.65724.6739 1.40261.7517 2.17686.0778.7742-.0262 1.5559-.3037 2.2828-.2775.727-.7208 1.3791-1.2947 1.9046 1.3598.5887 2.5418 1.523 3.4287 2.71.0788.1053.1361.2251.1685.3526s.0393.2601.0204.3903c-.0189.1301-.0634.2553-.1307.3683-.0674.1129-.1564.2115-.2619.29zm-6.735 7.7c.0723.1138.1209.2411.1428.3742s.0166.2692-.0154.4002c-.0321.131-.0904.2542-.1713.3621s-.1828.1983-.2996.2658c-.1167.0675-.246.1106-.3798.1269-.1339.0163-.2697.0053-.3992-.0323-.1296-.0376-.2502-.101-.3546-.1864s-.1904-.191-.2529-.3105c-.63-1.0666-1.5271-1.9506-2.603-2.5647-1.0758-.6141-2.2932-.9371-3.532-.9371s-2.4562.323-3.532.9371c-1.0759.6141-1.9731 1.4981-2.60301 2.5647-.06251.1195-.14856.2251-.25295.3105-.1044.0854-.22498.1488-.35451.1864s-.26532.0486-.39921.0323c-.13388-.0163-.26309-.0594-.37986-.1269-.11676-.0675-.21867-.1579-.29959-.2658-.08091-.1079-.13916-.2311-.17125-.3621s-.03734-.2671-.01546-.4002c.02189-.1331.07048-.2604.14283-.3742.9695-1.6658 2.44771-2.9766 4.21751-3.74-.9958-.7624-1.7277-1.8178-2.0928-3.0177-.36499-1.1999-.34484-2.484.0577-3.6719.4025-1.1879 1.1671-2.2197 2.1864-2.9505 1.0193-.7309 2.242-1.1239 3.4962-1.1239s2.4769.393 3.4962 1.1239c1.0192.7308 1.7839 1.7626 2.1864 2.9505s.4227 2.472.0576 3.6719c-.365 1.1999-1.0969 2.2553-2.0927 3.0177 1.7697.7634 3.248 2.0742 4.2175 3.74zm-7.865-4.5c.7911 0 1.5645-.2346 2.2223-.6741s1.1705-1.0642 1.4732-1.7951c.3028-.731.382-1.5352.2276-2.3111-.1543-.776-.5353-1.4887-1.0947-2.0481s-1.2721-.9404-2.048-1.0947c-.776-.1544-1.5802-.0751-2.3111.2276-.7309.3028-1.3557.8154-1.7952 1.4732s-.6741 1.4312-.6741 2.2223c0 1.0609.4214 2.0783 1.1716 2.8284.7501.7502 1.7675 1.1716 2.8284 1.1716zm-7.00001-7c0-.2652-.10536-.5196-.29289-.7071-.18754-.1875-.44189-.2929-.70711-.2929-.56109 0-1.11092-.1574-1.58704-.4543s-.85944-.7213-1.10642-1.2251-.34773-1.0668-.29079-1.625c.05693-.5582.26927-1.08924.61288-1.5328.34362-.44357.80474-.78188 1.33099-.97651.52626-.19463 1.09654-.23778 1.64609-.12454.54954.11324 1.05632.37832 1.4628.76513.4064.38682.6962.87987.8365 1.42312.0663.2569.2319.477.4605.6118s.5013.1733.7582.107c.257-.0663.477-.232.6118-.4605.1348-.2286.1733-.5014.107-.75828-.1947-.75336-.5625-1.45088-1.0742-2.03706-.5118-.58618-1.1532-1.04485-1.87337-1.3395-.72016-.29466-1.49915-.41716-2.27499-.35778-.77584.05939-1.52711.29903-2.19404.69985-.66693.40083-1.2311.95178-1.64763 1.60901-.41653.65724-.67392 1.40261-.75169 2.17686-.07777.7742.02623 1.5559.30372 2.2828.27749.727.72081 1.3791 1.29469 1.9046-1.3584.5893-2.53911 1.5235-3.425 2.71-.15929.2121-.227781.4789-.19039.7416.03739.2626.17759.4997.38977.659.21217.1593.47893.2278.7416.1904s.49973-.1776.65902-.3898c.60273-.8102 1.38727-1.4675 2.29045-1.9191s1.89977-.6848 2.90955-.6809c.26522 0 .51957-.1053.70711-.2929.18753-.1875.29289-.4419.29289-.7071z" fill="#2f2227"/></svg>